<?xml version="1.0" standalone="no"?>
<!DOCTYPE svg PUBLIC "-//W3C//DTD SVG 20010904//EN"
 "http://www.w3.org/TR/2001/REC-SVG-20010904/DTD/svg10.dtd">
<svg version="1.0" xmlns="http://www.w3.org/2000/svg"
 width="512.000000pt" height="512.000000pt" viewBox="0 0 512.000000 512.000000"
 preserveAspectRatio="xMidYMid meet">
<metadata>
Created by potrace 1.11, written by Peter Selinger 2001-2013
</metadata>
<g transform="translate(0.000000,512.000000) scale(0.100000,-0.100000)"
fill="#000000" stroke="none">
<path d="M655 2574 l0 -364 170 0 c250 0 330 27 402 134 42 62 54 102 60 208
10 165 -57 295 -178 348 -53 22 -60 23 -344 34 l-110 4 0 -364z m385 204 c86
-44 124 -180 85 -300 -34 -106 -87 -138 -230 -138 l-95 0 0 230 0 230 98 0
c82 0 105 -4 142 -22z"/>
<path d="M2715 2574 l0 -364 75 0 75 0 0 128 0 127 130 5 c113 5 135 8 172 29
148 84 147 329 -1 400 -48 24 -78 27 -321 35 l-130 4 0 -364z m329 226 c59
-13 81 -41 81 -101 0 -45 -4 -54 -33 -80 -31 -28 -36 -29 -132 -29 l-100 0 0
103 c0 57 3 107 7 110 9 10 131 8 177 -3z"/>
<path d="M3375 2573 l0 -363 75 0 75 0 -3 145 -4 145 71 0 c120 0 145 -26 206
-207 l28 -83 84 0 c45 0 83 1 83 3 0 8 -81 190 -109 246 -17 33 -42 68 -56 77
l-25 16 43 22 c109 55 118 253 14 317 -52 31 -92 37 -292 41 l-190 4 0 -363z
m354 226 c38 -13 51 -35 51 -84 0 -71 -61 -100 -195 -93 l-60 3 -3 93 -3 92
89 0 c49 0 103 -5 121 -11z"/>
<path d="M1361 2878 c25 -64 211 -577 228 -630 l13 -38 92 0 93 0 21 63 c12
34 70 196 130 360 l109 297 -89 0 c-79 0 -88 -2 -88 -19 0 -19 -165 -549 -174
-558 -2 -3 -13 24 -24 59 -11 34 -49 156 -86 270 -36 114 -66 217 -66 228 0
19 -6 20 -90 20 l-90 0 21 -52z"/>
<path d="M2125 2570 l0 -360 258 0 257 0 0 68 0 67 -186 -3 -186 -3 4 295 3
296 -75 0 -75 0 0 -360z"/>
<path d="M4349 2903 c-6 -16 -75 -199 -154 -408 -79 -209 -147 -388 -150 -397
-6 -16 0 -18 58 -18 l64 0 153 407 c84 225 155 416 158 425 4 16 -3 18 -57 18
-58 0 -62 -2 -72 -27z"/>
<path d="M340 2636 c-292 -165 -291 -144 -6 -305 119 -66 218 -121 221 -121 3
0 5 30 5 68 l0 67 -120 63 c-66 35 -122 67 -124 71 -3 4 49 36 116 72 66 35
122 69 125 75 2 6 3 38 1 71 l-3 60 -215 -121z"/>
<path d="M4532 2684 l3 -66 120 -64 c66 -35 121 -67 122 -71 2 -4 -52 -37
-120 -73 l-122 -65 -3 -67 c-2 -38 0 -68 4 -68 4 0 105 55 226 123 198 111
218 124 218 148 0 24 -20 38 -215 148 -119 66 -220 121 -226 121 -6 0 -9 -27
-7 -66z"/>
</g>
</svg>
